<?xml version="1.0" encoding="UTF-8" standalone="no" ?>
<!DOCTYPE svg PUBLIC "-//W3C//DTD SVG 1.1//EN" "http://www.w3.org/Graphics/SVG/1.1/DTD/svg11.dtd">
<svg xmlns="http://www.w3.org/2000/svg" xmlns:xlink="http://www.w3.org/1999/xlink" version="1.1" width="1280" height="1024" viewBox="0 0 1280 1024" xml:space="preserve">
<desc>Created with Fabric.js 4.4.0</desc>
<defs>
</defs>
<g transform="matrix(1 0 0 1 640 512)" id="background-logo"  >
<rect style="stroke: none; stroke-width: 0; stroke-dasharray: none; stroke-linecap: butt; stroke-dashoffset: 0; stroke-linejoin: miter; stroke-miterlimit: 4; fill: rgb(45,41,38); fill-rule: nonzero; opacity: 1;"  paint-order="stroke"  x="-640" y="-512" rx="0" ry="0" width="1280" height="1024" />
</g>
<g transform="matrix(1.9211538461538462 0 0 1.9211538461538462 640.0816115159256 731.1783648324493)" id="text-logo-path"  >
<path style="stroke: rgb(255,145,77); stroke-width: 0; stroke-dasharray: none; stroke-linecap: butt; stroke-dashoffset: 0; stroke-linejoin: miter; stroke-miterlimit: 4; fill: rgb(233,75,60); fill-rule: nonzero; opacity: 1;"  paint-order="stroke"  transform=" translate(-297.235, 28.27)" d="M 14.87 0 L 8.79 0 L 8.79 -56.54 L 14.87 -56.54 L 14.87 -32.54 L 30.03 -56.54 L 36.79 -56.54 L 21.41 -32.2 L 37.85 0 L 31.14 0 L 17.76 -26.38 L 14.87 -21.75 L 14.87 0 Z M 47.37 -10.88 L 47.37 -10.88 L 47.37 -56.54 L 53.48 -56.54 L 53.48 -10.88 Q 53.48 -7.56 54.91 -5.73 Q 56.33 -3.91 60.15 -3.91 Q 63.98 -3.91 67.2 -6.86 Q 70.43 -9.81 70.43 -12.62 L 70.43 -12.62 L 70.43 -56.54 L 76.51 -56.54 L 76.51 0 L 73.92 0 L 71.66 -5.56 Q 69.75 -2.42 66.74 -0.55 Q 63.72 1.32 60.15 1.32 L 60.15 1.32 Q 47.37 1.32 47.37 -10.88 Z M 100 0 L 93.92 0 L 93.92 -56.54 L 96.52 -56.54 L 98.68 -50.98 Q 100.51 -54.12 103.48 -55.99 Q 106.46 -57.86 109.94 -57.86 L 109.94 -57.86 Q 118.73 -57.86 121.15 -51.49 L 121.15 -51.49 Q 125.32 -57.86 132.11 -57.86 L 132.11 -57.86 Q 144.39 -57.86 144.39 -45.67 L 144.39 -45.67 L 144.39 0 L 138.27 0 L 138.27 -45.67 Q 138.27 -52.63 132.03 -52.63 L 132.03 -52.63 Q 128.38 -52.63 125.27 -49.68 Q 122.17 -46.73 122.17 -43.92 L 122.17 -43.92 L 122.17 0 L 116.1 0 L 116.1 -45.67 Q 116.1 -52.63 109.85 -52.63 L 109.85 -52.63 Q 106.2 -52.63 103.1 -49.81 Q 100 -46.98 100 -44.18 L 100 -44.18 L 100 0 Z M 159.13 -10.88 L 159.13 -10.88 L 159.13 -19.58 Q 159.13 -31.78 171.66 -31.78 L 171.66 -31.78 L 181.73 -31.78 L 181.73 -46.01 Q 181.73 -49.15 179.73 -50.89 Q 177.74 -52.63 173.83 -52.63 L 173.83 -52.63 Q 166.1 -52.63 166.1 -46.01 L 166.1 -46.01 L 166.1 -40.91 L 159.98 -40.91 L 159.98 -45.67 Q 159.98 -51.49 163.42 -54.67 Q 166.86 -57.86 173.83 -57.86 Q 180.8 -57.86 184.32 -54.67 Q 187.85 -51.49 187.85 -45.67 L 187.85 -45.67 L 187.85 0 L 185.21 0 L 182.96 -5.56 Q 181.14 -2.42 178.18 -0.55 Q 175.23 1.32 171.66 1.32 L 171.66 1.32 Q 159.13 1.32 159.13 -10.88 Z M 165.21 -19.58 L 165.21 -10.88 Q 165.21 -7.56 166.61 -5.73 Q 168.01 -3.91 171.66 -3.91 Q 175.32 -3.91 178.44 -6.73 Q 181.56 -9.56 181.73 -12.36 L 181.73 -12.36 L 181.73 -26.55 L 171.66 -26.55 Q 168.01 -26.55 166.61 -24.72 Q 165.21 -22.9 165.21 -19.58 L 165.21 -19.58 Z M 210.45 0 L 204.37 0 L 204.37 -56.54 L 206.96 -56.54 L 209.51 -50.13 Q 212.32 -57.86 218.39 -57.86 L 218.39 -57.86 Q 228.76 -57.86 228.71 -46.56 L 228.71 -46.56 L 228.71 -40.91 L 222.9 -40.91 L 222.9 -46.9 Q 222.9 -52.63 218.09 -52.63 L 218.09 -52.63 Q 215.21 -52.63 212.83 -49.32 Q 210.45 -46.01 210.45 -39.76 L 210.45 -39.76 L 210.45 0 Z M 244.39 0 L 238.27 0 L 238.27 -56.54 L 251.44 -56.54 Q 258.24 -56.54 261.74 -53.33 Q 265.25 -50.13 265.25 -44.35 L 265.25 -44.35 L 265.25 -29.57 Q 265.25 -23.75 261.76 -20.58 Q 258.28 -17.42 251.44 -17.42 L 251.44 -17.42 L 244.39 -17.42 L 244.39 0 Z M 244.39 -51.32 L 244.39 -22.6 L 251.44 -22.6 Q 259.17 -22.6 259.17 -29.57 L 259.17 -29.57 L 259.17 -44.35 Q 259.17 -47.66 257.18 -49.49 Q 255.18 -51.32 251.44 -51.32 L 251.44 -51.32 L 244.39 -51.32 Z M 285.26 0 L 279.18 0 L 279.18 -56.54 L 281.77 -56.54 L 284.32 -50.13 Q 287.13 -57.86 293.2 -57.86 L 293.2 -57.86 Q 303.57 -57.86 303.52 -46.56 L 303.52 -46.56 L 303.52 -40.91 L 297.7 -40.91 L 297.7 -46.9 Q 297.7 -52.63 292.9 -52.63 L 292.9 -52.63 Q 290.01 -52.63 287.64 -49.32 Q 285.26 -46.01 285.26 -39.76 L 285.26 -39.76 L 285.26 0 Z M 320.05 0 L 313.97 0 L 313.97 -56.54 L 320.05 -56.54 L 320.05 0 Z M 334.36 -27.99 L 334.36 -27.99 L 334.36 -56.54 L 340.44 -56.54 L 340.44 -27.99 Q 340.44 -21.03 349.1 -21.03 L 349.1 -21.03 Q 349.1 -21.03 349.15 -21.07 L 349.15 -21.07 Q 357.86 -21.07 357.86 -27.99 L 357.86 -27.99 L 357.86 -56.54 L 363.93 -56.54 L 363.93 -27.99 Q 363.93 -17.29 352.29 -16.02 L 352.29 -16.02 L 352.29 0 L 346.22 0 L 346.22 -16.02 Q 334.36 -17.33 334.36 -27.99 Z M 376.55 -10.88 L 376.55 -10.88 L 376.55 -19.58 Q 376.55 -31.78 389.08 -31.78 L 389.08 -31.78 L 399.15 -31.78 L 399.15 -46.01 Q 399.15 -49.15 397.15 -50.89 Q 395.15 -52.63 391.25 -52.63 L 391.25 -52.63 Q 383.51 -52.63 383.51 -46.01 L 383.51 -46.01 L 383.51 -40.91 L 377.4 -40.91 L 377.4 -45.67 Q 377.4 -51.49 380.84 -54.67 Q 384.28 -57.86 391.25 -57.86 Q 398.21 -57.86 401.74 -54.67 Q 405.26 -51.49 405.26 -45.67 L 405.26 -45.67 L 405.26 0 L 402.63 0 L 400.38 -5.56 Q 398.55 -2.42 395.6 -0.55 Q 392.65 1.32 389.08 1.32 L 389.08 1.32 Q 376.55 1.32 376.55 -10.88 Z M 382.62 -19.58 L 382.62 -10.88 Q 382.62 -7.56 384.02 -5.73 Q 385.43 -3.91 389.08 -3.91 Q 392.73 -3.91 395.85 -6.73 Q 398.98 -9.56 399.15 -12.36 L 399.15 -12.36 L 399.15 -26.55 L 389.08 -26.55 Q 385.43 -26.55 384.02 -24.72 Q 382.62 -22.9 382.62 -19.58 L 382.62 -19.58 Z M 427.86 0 L 421.79 0 L 421.79 -56.54 L 424.38 -56.54 L 426.55 -50.89 Q 430.71 -57.86 438.14 -57.86 L 438.14 -57.86 Q 450.93 -57.86 450.93 -45.67 L 450.93 -45.67 L 450.93 0 L 444.86 0 L 444.86 -45.67 Q 444.86 -48.98 443.41 -50.81 Q 441.97 -52.63 438.14 -52.63 Q 434.32 -52.63 431.09 -49.68 Q 427.86 -46.73 427.86 -43.92 L 427.86 -43.92 L 427.86 0 Z M 465.71 -10.88 L 465.71 -10.88 L 465.71 -18.27 L 471.79 -18.27 L 471.79 -10.54 Q 471.79 -7.39 473.98 -5.65 Q 476.16 -3.91 480.41 -3.91 Q 484.66 -3.91 486.85 -5.65 Q 489.04 -7.39 489.04 -10.39 Q 489.04 -13.38 488.38 -15.17 Q 487.72 -16.95 485.72 -18.95 L 485.72 -18.95 L 470.39 -33.94 Q 467.71 -36.62 466.71 -39.19 Q 465.71 -41.76 465.71 -45.67 L 465.71 -45.67 Q 465.71 -51.49 469.32 -54.67 Q 472.94 -57.86 480.24 -57.86 L 480.24 -57.86 Q 494.26 -57.86 494.26 -45.67 L 494.26 -45.67 L 494.26 -38.27 L 488.14 -38.27 L 488.14 -46.01 Q 488.14 -49.15 486.1 -50.89 Q 484.06 -52.63 479.97 -52.63 Q 475.87 -52.63 473.83 -50.89 Q 471.79 -49.15 471.79 -46.11 Q 471.79 -43.08 472.4 -41.33 Q 473.02 -39.59 475.1 -37.68 L 475.1 -37.68 L 490.69 -22.73 Q 493.2 -19.92 494.15 -17.35 Q 495.11 -14.78 495.11 -10.88 L 495.11 -10.88 Q 495.11 1.32 480.41 1.32 Q 465.71 1.32 465.71 -10.88 Z M 516.82 0 L 510.74 0 L 510.74 -56.54 L 516.82 -56.54 L 516.82 -31.31 L 533.98 -31.31 L 533.98 -56.54 L 540.05 -56.54 L 540.05 0 L 533.98 0 L 533.98 -26.08 L 516.82 -26.08 L 516.82 0 Z M 556.54 -10.88 L 556.54 -10.88 L 556.54 -56.54 L 562.65 -56.54 L 562.65 -10.88 Q 562.65 -7.56 564.08 -5.73 Q 565.5 -3.91 569.32 -3.91 Q 573.15 -3.91 576.38 -6.86 Q 579.6 -9.81 579.6 -12.62 L 579.6 -12.62 L 579.6 -56.54 L 585.68 -56.54 L 585.68 0 L 583.09 0 L 580.84 -5.56 Q 578.92 -2.42 575.91 -0.55 Q 572.89 1.32 569.32 1.32 L 569.32 1.32 Q 556.54 1.32 556.54 -10.88 Z" stroke-linecap="round" />
</g>
<g transform="matrix(1.9211538461538462 0 0 1.9211538461538462 640.3048706054689 831.9754314225434)" id="tagline-41ef41aa-abad-416c-962e-f7ad6416a4f3-logo-path"  >
<path style="stroke: none; stroke-width: 0; stroke-dasharray: none; stroke-linecap: butt; stroke-dashoffset: 0; stroke-linejoin: miter; stroke-miterlimit: 4; fill: rgb(231,76,60); fill-rule: nonzero; opacity: 1;"  paint-order="stroke"  transform=" translate(-96.31, 16.245)" d="M 19.75 0 L 5 0 L 5 -32.5 L 19.24 -32.5 L 19.24 -29.49 L 8.5 -29.49 L 8.5 -17.99 L 17.26 -17.99 L 17.26 -14.99 L 8.5 -14.99 L 8.5 -3 L 19.75 -3 L 19.75 0 Z M 26.25 -6.25 L 26.25 -6.25 L 26.25 -10.5 L 29.74 -10.5 L 29.74 -6.05 Q 29.74 -4.25 30.99 -3.25 Q 32.25 -2.25 34.69 -2.25 Q 37.13 -2.25 38.39 -3.25 Q 39.65 -4.25 39.65 -5.97 Q 39.65 -7.69 39.27 -8.72 Q 38.89 -9.74 37.74 -10.89 L 37.74 -10.89 L 28.93 -19.51 Q 27.39 -21.04 26.82 -22.52 Q 26.25 -24 26.25 -26.25 L 26.25 -26.25 Q 26.25 -29.59 28.32 -31.42 Q 30.4 -33.25 34.59 -33.25 L 34.59 -33.25 Q 42.65 -33.25 42.65 -26.25 L 42.65 -26.25 L 42.65 -22 L 39.14 -22 L 39.14 -26.44 Q 39.14 -28.25 37.96 -29.25 Q 36.79 -30.25 34.44 -30.25 Q 32.08 -30.25 30.91 -29.25 Q 29.74 -28.25 29.74 -26.5 Q 29.74 -24.76 30.09 -23.75 Q 30.44 -22.75 31.64 -21.66 L 31.64 -21.66 L 40.6 -13.06 Q 42.04 -11.45 42.59 -9.97 Q 43.14 -8.5 43.14 -6.25 L 43.14 -6.25 Q 43.14 0.76 34.69 0.76 Q 26.25 0.76 26.25 -6.25 Z M 51.37 -5.76 L 51.37 -5.76 L 51.37 -32.5 L 62.38 -32.5 L 62.38 -29.49 L 54.86 -29.49 L 54.86 -5.54 Q 54.86 -4.15 55.59 -3.2 Q 56.32 -2.25 57.64 -2.25 Q 58.96 -2.25 59.67 -3.17 Q 60.38 -4.1 60.38 -5.54 L 60.38 -5.54 L 60.38 -11.5 L 63.87 -11.5 L 63.87 -5.76 Q 63.87 -2.61 62.19 -0.93 Q 60.52 0.76 57.67 0.76 Q 54.81 0.76 53.09 -0.92 Q 51.37 -2.59 51.37 -5.76 Z M 74.61 0 L 70.12 0 L 70.12 -5.49 L 74.61 -5.49 L 74.61 0 Z M 111.69 0 L 94.85 0 L 94.85 -3 L 104.35 -16.46 Q 104.54 -16.7 105.1 -17.5 Q 105.66 -18.31 105.91 -18.65 Q 106.15 -18.99 106.6 -19.7 Q 107.06 -20.41 107.28 -20.83 Q 107.5 -21.24 107.76 -21.8 L 107.76 -21.8 Q 108.25 -22.8 108.25 -23.75 L 108.25 -23.75 L 108.25 -26.44 Q 108.25 -28.25 107.08 -29.25 Q 105.91 -30.25 103.55 -30.25 Q 101.2 -30.25 100.02 -29.25 Q 98.85 -28.25 98.85 -26.44 L 98.85 -26.44 L 98.85 -22 L 95.36 -22 L 95.36 -26.25 Q 95.36 -33.25 103.42 -33.25 L 103.42 -33.25 Q 107.62 -33.25 109.69 -31.42 Q 111.77 -29.59 111.77 -26.25 L 111.77 -26.25 L 111.77 -23.75 Q 111.77 -22.05 110.68 -20.02 Q 109.59 -17.99 107.06 -14.36 L 107.06 -14.36 L 99.1 -3 L 111.69 -3 L 111.69 0 Z M 120.09 -6.25 L 120.09 -6.25 L 120.09 -26.25 Q 120.09 -29.59 122.22 -31.42 Q 124.34 -33.25 128.56 -33.25 Q 132.79 -33.25 134.94 -31.42 Q 137.08 -29.59 137.08 -26.25 L 137.08 -26.25 L 137.08 -6.25 Q 137.08 -2.91 134.96 -1.07 Q 132.84 0.76 128.61 0.76 Q 124.39 0.76 122.24 -1.07 Q 120.09 -2.91 120.09 -6.25 Z M 123.58 -26.25 L 123.58 -6.25 Q 123.58 -2.25 128.59 -2.25 Q 133.59 -2.25 133.59 -6.25 L 133.59 -6.25 L 133.59 -26.25 Q 133.59 -30.25 128.59 -30.25 Q 123.58 -30.25 123.58 -26.25 L 123.58 -26.25 Z M 162.67 0 L 145.83 0 L 145.83 -3 L 155.32 -16.46 Q 155.52 -16.7 156.08 -17.5 Q 156.64 -18.31 156.88 -18.65 Q 157.13 -18.99 157.58 -19.7 Q 158.03 -20.41 158.25 -20.83 Q 158.47 -21.24 158.74 -21.8 L 158.74 -21.8 Q 159.23 -22.8 159.23 -23.75 L 159.23 -23.75 L 159.23 -26.44 Q 159.23 -28.25 158.06 -29.25 Q 156.88 -30.25 154.53 -30.25 Q 152.17 -30.25 151 -29.25 Q 149.83 -28.25 149.83 -26.44 L 149.83 -26.44 L 149.83 -22 L 146.34 -22 L 146.34 -26.25 Q 146.34 -33.25 154.39 -33.25 L 154.39 -33.25 Q 158.59 -33.25 160.67 -31.42 Q 162.74 -29.59 162.74 -26.25 L 162.74 -26.25 L 162.74 -23.75 Q 162.74 -22.05 161.66 -20.02 Q 160.57 -17.99 158.03 -14.36 L 158.03 -14.36 L 150.07 -3 L 162.67 -3 L 162.67 0 Z M 171.92 -25.2 L 170.41 -27.76 L 178.61 -32.5 L 182.13 -32.5 L 182.13 -3 L 187.62 -3 L 187.62 0 L 173.12 0 L 173.12 -3 L 178.61 -3 L 178.61 -29.05 L 171.92 -25.2 Z" stroke-linecap="round" />
</g>
<g transform="matrix(1.8197133406218513 0 0 1.8197133406218517 640 381.7518288165977)" id="logo-logo"  >
<g style=""  paint-order="stroke"   >
		<g transform="matrix(-1.316206106239585 0 0 -1.316206106239585 2.467233446345631 0)"  >
<g style=""  paint-order="stroke"   >
		<g transform="matrix(1 0 0 1 1.2950000000000017 0.8699999999999903)"  >
<polygon style="stroke: none; stroke-width: 1; stroke-dasharray: none; stroke-linecap: butt; stroke-dashoffset: 0; stroke-linejoin: miter; stroke-miterlimit: 4; fill: rgb(233,75,60); fill-rule: nonzero; opacity: 1;"  paint-order="stroke"  points="86.645,-97.77 77.21499999999999,-88.91999999999999 77.22500000000001,-81.52999999999999 -71.845,75.24000000000002 -71.885,75.16000000000001 -76.36500000000001,77.38000000000001 -82.805,78.46000000000002 -95.145,97.77 -74.545,85.88000000000001 -73.515,80.02 -72.435,78.07000000000001 78.80499999999999,-80.99 86.02499999999999,-80.74999999999999 95.145,-89.28999999999999 86.50500000000001,-89.72999999999999 86.645,-97.77 " />
</g>
		<g transform="matrix(1 0 0 1 94.525 -94.8)"  >
<polygon style="stroke: none; stroke-width: 1; stroke-dasharray: none; stroke-linecap: butt; stroke-dashoffset: 0; stroke-linejoin: miter; stroke-miterlimit: 4; fill: rgb(233,75,60); fill-rule: nonzero; opacity: 1;"  paint-order="stroke"  points="-0.08500000000000796,5.2 5.474999999999994,-0.009999999999999787 0.2150000000000034,-0.29000000000000004 0.2949999999999875,-5.2 -5.474999999999994,0.20999999999999996 -5.465000000000003,5.0200000000000005 -0.08500000000000796,5.2 " />
</g>
		<g transform="matrix(1 0 0 1 -94.525 -93.45)"  >
<polygon style="stroke: none; stroke-width: 1; stroke-dasharray: none; stroke-linecap: butt; stroke-dashoffset: 0; stroke-linejoin: miter; stroke-miterlimit: 4; fill: rgb(233,75,60); fill-rule: nonzero; opacity: 1;"  paint-order="stroke"  points="0.08499999999999996,5.199999999999999 5.455,5.02 5.475,0.21999999999999886 -0.29499999999999993,-5.200000000000001 -0.20500000000000007,-0.28000000000000114 -5.475,-0.010000000000000675 0.08499999999999996,5.199999999999999 " />
</g>
		<g transform="matrix(1 0 0 1 -1.2849999999999966 2.2250000000000085)"  >
<polygon style="stroke: none; stroke-width: 1; stroke-dasharray: none; stroke-linecap: butt; stroke-dashoffset: 0; stroke-linejoin: miter; stroke-miterlimit: 4; fill: rgb(233,75,60); fill-rule: nonzero; opacity: 1;"  paint-order="stroke"  points="82.79499999999999,78.46499999999999 76.35499999999999,77.385 72.435,75.43499999999999 -77.22500000000001,-81.965 -77.215,-88.92500000000001 -86.655,-97.775 -86.515,-89.73500000000001 -95.14500000000001,-89.29500000000002 -86.025,-80.75500000000001 -78.415,-81.00500000000001 71.85499999999999,77.02499999999999 73.505,80.015 74.535,85.865 95.14500000000001,97.77499999999999 82.79499999999999,78.46499999999999 " />
</g>
</g>
</g>
		<g transform="matrix(0.37684841846197203 0 0 0.3768484184619721 2.3644395334379738 89.31780475127655)"  >
<g style=""  paint-order="stroke"   >
		<g transform="matrix(1 0 0 1 0 0)"  >
<path style="stroke: none; stroke-width: 1; stroke-dasharray: none; stroke-linecap: butt; stroke-dashoffset: 0; stroke-linejoin: miter; stroke-miterlimit: 4; fill: rgb(233,75,60); fill-rule: nonzero; opacity: 1;"  paint-order="stroke"  transform=" translate(-100, -86.5)" d="M 100 0.5 L 0 172.5 L 200 172.5 L 100 0.5 z M 100 20.4 L 182.8 162.8 L 17.2 162.8 L 100 20.4 z" stroke-linecap="round" />
</g>
</g>
</g>
		<g transform="matrix(0.3909198331264871 0 0 0.3909198331264871 -100.59047415363045 2.371114061926704)"  >
<g style=""  paint-order="stroke"   >
		<g transform="matrix(1 0 0 1 0 0)"  >
<path style="stroke: none; stroke-width: 1; stroke-dasharray: none; stroke-linecap: butt; stroke-dashoffset: 0; stroke-linejoin: miter; stroke-miterlimit: 4; fill: rgb(233,75,60); fill-rule: nonzero; opacity: 1;"  paint-order="stroke"  transform=" translate(-100, -79)" d="M 99.63 158 L 0 49.84 L 46.89 0 L 153.09 0 L 200 49.85 Z M 12.53 49.91 L 99.65 144.49 L 187.44 49.9 L 149.1 9.14 L 50.88 9.14 Z" stroke-linecap="round" />
</g>
</g>
</g>
		<g transform="matrix(0.4117248017183521 0 0 0.41172480171835213 98.5099772944439 -3.6603513716233067)"  >
<g style=""  paint-order="stroke"   >
		<g transform="matrix(1 0 0 1 0 0)"  >
<path style="stroke: none; stroke-width: 1; stroke-dasharray: none; stroke-linecap: butt; stroke-dashoffset: 0; stroke-linejoin: miter; stroke-miterlimit: 4; fill: rgb(233,75,60); fill-rule: nonzero; opacity: 1;"  paint-order="stroke"  transform=" translate(-100, -100)" d="M 100 200 L 0 100 L 100 0 L 200 100 Z M 13.21 100 L 100 186.79 L 186.79 100 L 100 13.21 Z" stroke-linecap="round" />
</g>
</g>
</g>
</g>
</g>
<g transform="matrix(1.9211538461538462 0 0 1.9211538461538462 646.6189753605769 213.6976991336195)" id="tagline-a9322b8b-78ea-43fa-81af-d0900a5dccef-logo-path"  >
<path style="stroke: none; stroke-width: 0; stroke-dasharray: none; stroke-linecap: butt; stroke-dashoffset: 0; stroke-linejoin: miter; stroke-miterlimit: 4; fill: rgb(233,75,60); fill-rule: nonzero; opacity: 1;"  paint-order="stroke"  transform=" translate(-48.254999999999995, 31.845)" d="M 15.7 0 L 8.8 0 L 8.8 -63.69 L 23.64 -63.69 Q 31.29 -63.69 35.24 -60.08 Q 39.19 -56.46 39.19 -49.96 L 39.19 -49.96 L 39.19 -33.3 Q 39.19 -26.75 35.27 -23.18 Q 31.34 -19.62 23.64 -19.62 L 23.64 -19.62 L 15.7 -19.62 L 15.7 0 Z M 15.7 -57.8 L 15.7 -25.46 L 23.64 -25.46 Q 32.35 -25.46 32.35 -33.3 L 32.35 -33.3 L 32.35 -49.96 Q 32.35 -53.69 30.1 -55.75 Q 27.85 -57.8 23.64 -57.8 L 23.64 -57.8 L 15.7 -57.8 Z M 61.82 0 L 54.98 0 L 54.98 -63.69 L 61.82 -63.69 L 61.82 -36.65 L 78.91 -63.69 L 86.52 -63.69 L 69.19 -36.27 L 87.71 0 L 80.15 0 L 65.08 -29.72 L 61.82 -24.5 L 61.82 0 Z" stroke-linecap="round" />
</g>
</svg>